<?xml version="1.0" encoding="utf-8"?><svg viewBox="0 0 76 155" xmlns="http://www.w3.org/2000/svg" xmlns:xlink="http://www.w3.org/1999/xlink"><style>:root>svg{display:none}:root>svg:target{display:block}</style><svg fill="none" viewBox="0 0 40 40" id="css--box" xmlns="http://www.w3.org/2000/svg"><g clip-path="url(#aclip0_1_3105)" fill="#688800"><path d="M38.416 8.825L20.255.058a.586.586 0 00-.51 0L1.584 8.825a.586.586 0 00-.332.528v21.293c0 .225.13.43.332.528l18.161 8.767a.586.586 0 00.51 0l18.161-8.767a.586.586 0 00.331-.528V9.353a.586.586 0 00-.33-.528zM20 1.236l16.814 8.117-4.874 2.353a.589.589 0 00-.1-.063L15.142 3.582 20 1.236zm-6.182 3.008l16.79 8.106-3.44 1.66-16.782-8.102 3.432-1.664zM31 13.461v6.136l-3.212 1.551v-6.136L31 13.46zm6.576 16.817l-16.99 8.202V18.489l4.053-1.957a.586.586 0 00-.51-1.055l-4.13 1.993-1.624-.784a.586.586 0 10-.51 1.055l1.549.747V38.48l-16.99-8.202V10.287l12.938 6.245a.583.583 0 00.782-.273.586.586 0 00-.273-.782L3.186 9.353l5.82-2.81 17.602 8.497.008.01v7.032a.586.586 0 00.84.527l4.385-2.116a.586.586 0 00.33-.528v-7.07l5.405-2.608v19.991z"/><path d="M7.26 28.006L4.595 26.72a.586.586 0 10-.51 1.055l2.665 1.287a.583.583 0 00.783-.273.586.586 0 00-.273-.783zm2.453-1.596L4.6 23.94a.586.586 0 10-.51 1.056l5.115 2.47a.584.584 0 00.782-.274.586.586 0 00-.273-.782z"/></g><defs><clipPath id="aclip0_1_3105"><path fill="#fff" d="M0 0h40v40H0z"/></clipPath></defs></svg><svg fill="none" viewBox="0 0 40 40" id="css--cart" xmlns="http://www.w3.org/2000/svg"><path d="M38.162 14.718H29.19l-6.306-12.16a1.827 1.827 0 00-1.077-.906A1.826 1.826 0 0020 2.06a1.832 1.832 0 00-1.808-.408c-.468.149-.85.47-1.077.906l-6.647 12.817a1.826 1.826 0 00.091 1.848H1.84a.667.667 0 010-1.333h6.68a.586.586 0 100-1.172H1.84A1.84 1.84 0 000 16.556c0 .84.567 1.55 1.34 1.769l3.393 18.1a2.466 2.466 0 002.422 2.01h25.69a2.466 2.466 0 002.422-2.01l3.394-18.1A1.841 1.841 0 0040 16.556a1.84 1.84 0 00-1.838-1.838zM20.946 2.813a.662.662 0 01.508-.044c.17.054.308.171.39.329l6.647 12.817a.662.662 0 01-.284.898.662.662 0 01-.509.044.662.662 0 01-.39-.328L20.661 3.712a.667.667 0 01.285-.899zm7.802 15.582l-.554 5.717h-7.608v-5.717h8.162zM20 4.983l6.268 12.085c.027.053.058.105.09.155H13.642c.032-.05.063-.102.09-.155l.611-1.178h8.919a.586.586 0 100-1.172h-8.31L20 4.983zm-8.492 10.932l6.648-12.817a.662.662 0 01.592-.36.667.667 0 01.591.974l-6.647 12.816a.662.662 0 01-.39.329.662.662 0 01-.509-.044.662.662 0 01-.328-.39.662.662 0 01.043-.508zm-8.964 2.48h7.53l.555 5.717H3.616l-1.072-5.717zm1.292 6.888h6.906L11.297 31H4.908l-1.072-5.717zm3.32 11.98a1.293 1.293 0 01-1.271-1.055l-.757-4.036h6.283l.493 5.091H7.155zm12.258 0h-6.333l-.493-5.09h6.826v5.09zm0-6.263h-6.94l-.554-5.717h7.494V31zm0-6.888h-7.608l-.554-5.717h8.162v5.717zm7.505 13.151h-6.333v-5.09h6.826l-.493 5.09zM27.526 31h-6.94v-5.716h7.494L27.526 31zm6.59 5.208a1.293 1.293 0 01-1.271 1.055h-4.75l.495-5.09h6.282l-.757 4.035zM35.091 31h-6.389l.555-5.716h6.906L35.092 31zm1.292-6.889H29.37l.555-5.716h7.53l-1.072 5.716zm1.778-6.888H29.44a1.844 1.844 0 00.268-1.333h8.453a.667.667 0 010 1.333z" fill="#688800"/></svg><svg fill="none" viewBox="0 0 40 40" id="css--delivery" xmlns="http://www.w3.org/2000/svg"><path d="M32.383 14.729h-2.519l.76-8.712a.528.528 0 00.001-.047v-.004a.586.586 0 00-.353-.537l-.005-.003a.558.558 0 00-.04-.015l-.016-.005-.034-.009-.023-.005-.03-.005-.029-.004h-.005l-.03-.002H18.048a.586.586 0 000 1.171H29.4l-1.166 13.389v.003l-.294 3.378H7.58l.34-3.515h3.877a.586.586 0 000-1.172H8.034l.719-7.422h6.17a.586.586 0 100-1.171H8.866l.338-3.49h6.5a.587.587 0 000-1.172H8.672a.586.586 0 00-.572.463l-.001.005a.634.634 0 00-.007.045l-.002.014v.003l-.401 4.131H.586a.586.586 0 100 1.172h6.99l-.72 7.422h-2.09a.586.586 0 100 1.172h1.977l-.392 4.04v.002l-.605 6.249v.004c-.002.008-.001.016-.002.024l-.002.032v.002l.003.045v.014a.58.58 0 00.007.045l.002.013.009.033.006.023.002.007a.585.585 0 00.14.23l.003.003.02.017a.58.58 0 00.135.094l.032.015.01.003a.33.33 0 00.044.016l.004.002a.62.62 0 00.053.013l.007.001a.58.58 0 00.11.01h2.61a4.467 4.467 0 004.42 3.876 4.467 4.467 0 004.422-3.875h9.399a4.467 4.467 0 004.42 3.875 4.467 4.467 0 004.422-3.875h2.61a.61.61 0 00.058-.003l.01-.002a.607.607 0 00.046-.007l.019-.004a.492.492 0 00.034-.009l.022-.008a.618.618 0 00.03-.01l.023-.01.025-.013a.577.577 0 00.07-.041l.023-.018.019-.015a.518.518 0 00.023-.021l.016-.016a.582.582 0 00.024-.025l.012-.015a.67.67 0 00.024-.032l.008-.011a.536.536 0 00.053-.098l.006-.015a.617.617 0 00.013-.036l.007-.025.007-.03.005-.026.004-.024c.025-.199.484-3.88.689-6.26v-.007c.06-.686.097-1.264.097-1.618 0-4.2-3.417-7.617-7.617-7.617zm-2.62 1.172h2.396l-.306 3.515h-2.397l.306-3.515zM13.36 33.448a3.293 3.293 0 01-3.29-3.29 3.293 3.293 0 013.29-3.289 3.293 3.293 0 013.29 3.29 3.293 3.293 0 01-3.29 3.289zm18.241 0a3.293 3.293 0 01-3.289-3.29 3.293 3.293 0 013.29-3.289 3.293 3.293 0 013.289 3.29 3.293 3.293 0 01-3.29 3.289zm6.513-3.876h-2.09a4.467 4.467 0 00-4.422-3.875 4.467 4.467 0 00-4.422 3.875h-9.398a4.467 4.467 0 00-4.422-3.875 4.467 4.467 0 00-4.422 3.875H6.974l.492-5.078h21.012c.02 0 .039-.001.058-.003l.01-.002a.626.626 0 00.046-.006l.02-.005a.657.657 0 00.034-.01l.023-.007.03-.01a.474.474 0 00.049-.024l.024-.013a.719.719 0 00.088-.063.51.51 0 00.094-.104.666.666 0 00.03-.046l.012-.021.013-.028.01-.023.01-.028.01-.026.006-.027.007-.028.004-.028.004-.03v-.003l.294-3.371h3.029c1.795 0 2.605.93 3.462 1.915.707.812 1.497 1.719 2.839 1.94-.17 1.802-.446 4.116-.57 5.13zm.67-6.303c-.87-.178-1.407-.79-2.056-1.535-.811-.933-1.802-2.07-3.702-2.283l.304-3.48c3.106.46 5.498 3.143 5.498 6.375 0 .22-.016.539-.044.923z" fill="#688800"/><path d="M13.36 28.01a2.15 2.15 0 00-2.148 2.148 2.15 2.15 0 002.148 2.149 2.15 2.15 0 002.149-2.149 2.15 2.15 0 00-2.149-2.148zm0 3.125a.978.978 0 010-1.953.978.978 0 010 1.953zm18.242-3.125a2.15 2.15 0 00-2.149 2.148c0 1.185.964 2.149 2.149 2.149a2.15 2.15 0 002.148-2.149 2.15 2.15 0 00-2.148-2.148zm0 3.125a.978.978 0 010-1.953.978.978 0 010 1.953zM5.547 14.729H2.682a.586.586 0 100 1.17h2.865a.586.586 0 100-1.17z" fill="#688800"/></svg><svg fill="none" viewBox="0 0 24 24" id="css--facebook" xmlns="http://www.w3.org/2000/svg"><g clip-path="url(#dclip0_1_3046)"><path d="M20.486 3.515A11.921 11.921 0 0012.001 0a11.986 11.986 0 00-8.485 3.515A11.921 11.921 0 000 12c0 2.499.76 4.894 2.2 6.926a11.973 11.973 0 005.626 4.328.38.38 0 00.51-.366v-6.846a.378.378 0 00-.378-.379H4.8v-2.779h3.158c.21 0 .379-.17.379-.379V12c0-3.297 3.128-6.19 6.695-6.19h1.642v2.78h-1.643c-1.069 0-2.041.307-2.738.866-.77.619-1.177 1.498-1.177 2.544v.505c0 .21.17.38.379.38h1.494a.379.379 0 000-.759h-1.115V12c0-1.958 1.7-2.653 3.158-2.653h2.02c.21 0 .38-.17.38-.379V5.432a.38.38 0 00-.38-.38h-2.02c-1.853 0-3.73.738-5.152 2.022-1.483 1.342-2.3 3.091-2.3 4.926v.126H4.422c-.21 0-.379.17-.379.38v3.536c0 .21.17.38.379.38H7.58v5.917C3.478 20.582.759 16.495.759 12 .759 5.801 5.802.758 12 .758c6.192 0 11.242 5.05 11.242 11.242 0 6.199-5.043 11.242-11.242 11.242h-.126V16.42h5.179a.38.38 0 00.379-.379v-3.537c0-.21-.17-.379-.38-.379h-2.217a.379.379 0 100 .758h1.839v2.78h-5.18a.378.378 0 00-.378.378v7.567c0 .203.16.37.362.379a11.921 11.921 0 009.007-3.503A11.986 11.986 0 0024.001 12c0-3.205-1.248-6.219-3.515-8.485z" fill="#fff"/></g><defs><clipPath id="dclip0_1_3046"><path fill="#fff" d="M0 0h24v24H0z"/></clipPath></defs></svg><svg fill="none" viewBox="0 0 24 24" id="css--instagram" xmlns="http://www.w3.org/2000/svg"><path d="M20.485 3.515A11.921 11.921 0 0012 0a11.921 11.921 0 00-8.485 3.515A11.921 11.921 0 000 12c0 3.205 1.248 6.219 3.515 8.485A11.921 11.921 0 0012 24c3.205 0 6.219-1.248 8.485-3.515A11.922 11.922 0 0024 12c0-3.205-1.248-6.219-3.515-8.485zM12 23.242C5.801 23.242.758 18.2.758 12 .758 5.801 5.8.758 12 .758 18.199.758 23.242 5.8 23.242 12c0 6.199-5.043 11.242-11.242 11.242z" fill="#fff"/><path d="M16.305 4.547h-8.61a3.15 3.15 0 00-3.148 3.148v8.61a3.15 3.15 0 003.148 3.148h8.61a3.15 3.15 0 003.148-3.148v-8.61a3.15 3.15 0 00-3.148-3.148zm2.39 11.758a2.392 2.392 0 01-2.39 2.39h-8.61a2.392 2.392 0 01-2.39-2.39v-8.61a2.392 2.392 0 012.39-2.39h8.61a2.392 2.392 0 012.39 2.39v8.61z" fill="#fff"/><path d="M15.91 11.776a3.926 3.926 0 00-3.73-3.687 3.92 3.92 0 00-4.092 4.094 3.926 3.926 0 003.69 3.727 3.893 3.893 0 002.288-.586.375.375 0 00.068-.584l-.005-.005a.377.377 0 00-.468-.05 3.138 3.138 0 01-1.695.473 3.171 3.171 0 01-3.123-3.248 3.161 3.161 0 013.36-3.061 3.166 3.166 0 012.944 2.886 3.142 3.142 0 01-.357 1.742.377.377 0 00.064.444l.006.006a.374.374 0 00.594-.085c.327-.61.498-1.317.455-2.066zm.132-3.313a1.01 1.01 0 100-2.02 1.01 1.01 0 000 2.02z" fill="#fff"/></svg><svg fill="none" viewBox="0 0 76 155" id="css--logo" xmlns="http://www.w3.org/2000/svg"><path d="M25.273 98.426V78.732h1.398v19.694h-1.398zm7.346-61.473l1.288.572-.168.386-.186.377-.201.366-.217.356-.23.347-.24.34-.254.33-.261.325-.27.317-.275.312-.282.306-.286.3-.289.299-.29.292-.291.29-.29.286-.29.284-.285.282-.281.28-.277.28-.27.279-.26.277-.254.277-.242.276-.23.276-.22.276-.206.276-.19.276-.174.276-.159.276-.14.277-.124.28-1.284-.58.157-.354.175-.345.193-.337.208-.328.221-.321.234-.315.245-.31.255-.304.263-.3.27-.296.276-.292.281-.29.285-.288.288-.286.29-.285.288-.285.287-.284.286-.285.283-.285.277-.286.273-.287.265-.288.257-.29.248-.293.237-.294.226-.297.214-.3.2-.303.186-.304.17-.31.155-.311.138-.318-.003.002zm16.828 12.848H25.894v-1.465h23.553l.699.732-.7.732v.001zm0-1.465h.699v.732l-.7-.732zm-.7 24.507V49.069h1.399v23.774l-.7.732-.698-.732zm1.399 0v.732h-.7l.7-.732zm-24.252-.732h23.553v1.465H25.894l-.7-.732.7-.732v-.001zm0 1.465h-.7v-.732l.7.732zm.699-24.507v23.774h-1.398V49.069l.699-.732.699.732zm-1.398 0v-.732h.699l-.7.732zM22.36 109.16h30.03v1.466H22.36l-.699-.732.699-.733v-.001zm0 1.466h-.699v-.732l.699.732zm-.699-63.718h1.398v62.991h-1.398V46.908zM32.518 31.42v1.465l.699-.732-.036.556-.1.546-.159.535-.209.522-.255.51-.295.501-.33.493-.361.487-.388.481-.412.477-.431.473-.448.47-.46.467-.47.465-.474.463-.478.462-.474.458-.469.457-.46.456-.445.453-.43.45-.408.448-.382.444-.355.44-.323.436-.286.428-.248.422-.205.412-.161.401-.116.391-.069.378-.023.37h-1.398l.034-.558.101-.547.159-.537.209-.523.255-.512.295-.503.33-.494.36-.487.388-.482.413-.478.43-.473.448-.471.46-.469.47-.465.474-.463.477-.462.474-.458.468-.457.46-.455.446-.452.43-.45.407-.448.384-.443.354-.44.322-.434.286-.428.248-.421.205-.411.16-.4.115-.389.07-.377.023-.367.7-.732h.004zm-.7.732v-.732h.7l-.7.732zm10.745-.063h-1.397l.699.732h-.59l-.533.001-.48.001-.428.001-.382.002-.338.002-.301.002-.267.002-.234.003-.208.002-.184.002-.165.004-.151.002-.139.004-.132.002-.126.003-.13.004-.132.002-.142.003-.152.003-.168.003-.189.002-.211.003-.237.002-.269.002-.302.002-.34.003-.385.001-.43.001-.48.001-.533.001h-.592v-1.465h.59l.533-.001.48-.001.428-.001.382-.002.339-.002.3-.002.267-.002.235-.003.207-.002.184-.002.165-.004.15-.002.139-.003.132-.003.126-.003.13-.004.132-.002.14-.003.153-.003.168-.003.188-.002.21-.003.238-.002.268-.002.302-.002.341-.003.384-.001.43-.001.48-.001.533-.001h.591l.7.732h.003zm-.698-.732h.698v.732l-.698-.732zm11.224 15.398h-1.398l-.023-.36-.072-.37-.12-.383-.165-.396-.212-.408-.256-.418-.297-.425-.334-.433-.368-.438-.397-.442-.423-.446-.445-.448-.462-.451-.476-.454-.486-.456-.492-.457-.494-.46-.492-.46-.486-.463-.477-.465-.464-.467-.447-.472-.426-.475-.402-.479-.373-.483-.343-.49-.305-.499-.265-.508-.218-.52-.164-.533-.106-.547-.037-.557h1.398l.024.36.072.37.12.383.165.396.212.408.256.418.297.425.334.433.368.438.397.442.423.446.445.448.462.451.476.454.485.456.491.457.495.46.492.46.486.463.477.465.464.468.447.472.426.474.402.479.373.483.342.49.305.5.266.508.218.52.164.533.105.546.037.557h.001zm-1.398 63.139V46.755h1.398v63.139l-.699.732-.699-.732zm1.398 0v.732h-.699l.7-.732zM33.216 11.943v20.209h-1.398v-20.21l.698-.731.7.732zm-1.398 0v-.732h.698l-.698.732zm10.046.732h-9.349V11.21h9.349l.698.732-.698.732zm0-1.465h.698v.732l-.698-.732zm-.7 20.878V11.942h1.398v20.146h-1.398zm-9.557-21.836l1.343 1.116-.867 1.149L30.74 11.4l-.266-.573 1.133-.576zM30.74 11.4l-.264-.219-.002-.354.265.573zm1.127-2.984l.005 2.408-1.398.003-.005-2.407.304-.606 1.094.602zm-1.398.004l-.001-.387.304-.22-.304.607zm2.442-.368l-1.348.97-.79-1.208 1.349-.97.395-.129.394 1.337zm-.79-1.209l.178-.128h.218l-.395.128zm9.744 1.337h-9.349V6.716h9.349l.394.128-.394 1.337zm0-1.465h.216l.178.128-.394-.128zm.946 2.302l-1.342-.965.79-1.209 1.341.965.304.604-1.093.604zm.79-1.209l.303.219v.386L43.6 7.81zm-1.094 3.017V8.413h1.397v2.413l-.265.574-1.133-.574zm1.397 0v.354l-.265.22.265-.574zm-2.473.542l1.342-1.116.867 1.148-1.342 1.116-.867-1.148zM34.55.733v6.714h-1.398V.733l.699-.732.699.732zm-1.398 0V.001h.699l-.7.732zm7.375.732h-6.676V0h6.676l.7.732-.7.732v.001zm0-1.465h.7v.732l-.7-.732zm-.699 7.447V.733h1.398v6.714H39.83zM16.914 155c-.881 0-1.989-.869-3.322-2.609-1.334-1.739-2.662-3.832-3.983-6.279-1.322-2.446-2.398-4.688-3.228-6.729a371.464 371.464 0 00-2.04 7.455 327.164 327.164 0 01-1.85 6.828c-.654 0-1.233-.19-1.736-.569-.503-.38-.755-.844-.755-1.393 0-.392.177-1.112.529-2.158 1.686-5.441 3.233-10.13 4.643-14.067a235.999 235.999 0 014.908-12.496c-.957.156-1.782.386-2.474.686a26.81 26.81 0 00-2.246 1.118c-.478.287-.78.431-.906.431-.177 0-.415-.131-.718-.393-.301-.261-.452-.484-.452-.667C6.506 122.72 9.337 122 11.778 122c1.56 0 3.07.262 4.53.785 1.46.523 2.662 1.334 3.606 2.432.943 1.098 1.416 2.472 1.416 4.12 0 2.327-.9 4.126-2.7 5.395a14.992 14.992 0 01-5.889 2.511c-2.127.405-3.958.608-5.494.608a148.796 148.796 0 001.283 2.354c1.083 2.014 2.033 3.675 2.852 4.982.817 1.308 1.836 2.688 3.057 4.139 1.22 1.451 2.688 2.91 4.4 4.375-.152.34-.423.642-.813.903-.39.261-.762.393-1.113.393V155zm-9.93-17.774a20.255 20.255 0 005.663-1.178c1.787-.653 3.259-1.608 4.418-2.864 1.158-1.257 1.736-2.812 1.736-4.669 0-1.988-.648-3.434-1.946-4.335-1.295-.903-2.9-1.354-4.813-1.354-1.51 3.14-3.196 7.939-5.06 14.4h.002zm15.706 13.419c-.352 0-.641-.092-.869-.274-.226-.183-.34-.445-.34-.785 0-.418.24-.791.717-1.119.479-.327.97-.49 1.473-.49.653 0 .98.314.98.941 0 .393-.206.779-.622 1.158-.415.379-.862.569-1.34.569h.001zm9.175.862c-1.032 0-1.787-.326-2.266-.98-.479-.653-.717-1.517-.717-2.59s.214-2.197.642-3.374c.428-1.177.982-2.158 1.662-2.943.68-.785 1.359-1.178 2.039-1.178.226 0 .49.067.792.197-.303.261-.666.836-1.095 1.726-.428.89-.8 1.837-1.114 2.844-.315 1.007-.472 1.824-.472 2.453 0 1.491.453 2.237 1.36 2.237.529 0 1.158-.288 1.888-.864.73-.576 1.447-1.334 2.152-2.276-.705-.602-1.253-1.386-1.642-2.353a8.005 8.005 0 01-.585-3.021c0-1.361.334-2.525 1-3.493.667-.968 1.568-1.452 2.7-1.452.956 0 1.63.267 2.02.804.39.536.585 1.275.585 2.217 0 .994-.233 2.112-.699 3.354a19.202 19.202 0 01-1.83 3.629c.453.261.93.393 1.434.393.73 0 1.485-.229 2.266-.687.78-.457 1.372-1.17 1.775-2.137l.453.391c-.479 1.152-1.159 2.001-2.04 2.551-.88.549-1.787.823-2.718.823-.68 0-1.285-.131-1.813-.393-.906 1.23-1.869 2.225-2.888 2.983-1.02.759-1.982 1.138-2.888 1.138v.001zm5.55-5.767A17.025 17.025 0 0039 142.621c.402-1.06.604-2.034.604-2.924 0-.732-.107-1.282-.322-1.647-.213-.366-.483-.55-.81-.55-.353 0-.712.177-1.077.53-.365.353-.667.837-.906 1.451a5.52 5.52 0 00-.359 2.021c0 .812.107 1.59.321 2.335.214.745.536 1.38.963 1.903zm8.759 5.69c-1.032 0-1.794-.367-2.285-1.098-.491-.733-.736-1.714-.736-2.943 0-2.354.78-5.552 2.342-9.593 1.56-4.041 3.303-7.683 5.23-10.927 1.925-3.243 3.315-4.866 4.172-4.866.352 0 .648.32.886.961.239.641.36 1.289.36 1.943 0 1.203-.472 2.975-1.416 5.316-.945 2.341-2.184 4.715-3.72 7.121-1.536 2.407-3.172 4.355-4.907 5.846-.328 1.517-.492 2.838-.492 3.963 0 2.015.554 3.021 1.66 3.021.933 0 1.883-.613 2.851-1.843.97-1.229 1.831-2.708 2.586-4.434l.568.314c-2.166 4.813-4.531 7.22-7.098 7.22l-.001-.001zm.264-9.573c1.385-1.44 2.737-3.251 4.06-5.435 1.32-2.185 2.397-4.277 3.227-6.277.83-2.002 1.246-3.446 1.246-4.336 0-.419-.088-.627-.265-.627-.352 0-1.076.896-2.17 2.687-1.096 1.791-2.222 3.983-3.38 6.573-1.158 2.589-2.064 5.061-2.719 7.415h.001zm12.762-8.554c-.453 0-.824-.111-1.114-.334-.29-.221-.435-.543-.435-.961 0-.523.303-.995.906-1.412.604-.418 1.221-.627 1.85-.627.83 0 1.246.406 1.246 1.217 0 .497-.258.974-.773 1.431-.516.458-1.076.687-1.68.687v-.001zm-4.53 17.97c-.933 0-1.65-.307-2.153-.922-.504-.615-.755-1.405-.755-2.374 0-1.02.284-2.432.849-4.237.566-1.806 1.272-3.388 2.114-4.749.843-1.36 1.668-2.04 2.473-2.04a.81.81 0 01.585.235c.163.157.246.367.246.627 0 .367-.403 1.243-1.208 2.629-.83 1.44-1.491 2.727-1.983 3.865-.49 1.138-.736 2.217-.736 3.237 0 .915.145 1.537.434 1.865.29.326.762.49 1.416.49 1.964 0 3.902-2.002 5.815-6.003l.34.392c-.705 2.198-1.742 3.911-3.115 5.14-1.372 1.229-2.813 1.844-4.323 1.844v.001zm8.985.236c-1.032 0-1.787-.327-2.266-.981-.479-.653-.717-1.517-.717-2.59s.214-2.197.642-3.374c.428-1.176.982-2.158 1.661-2.943.68-.785 1.36-1.178 2.04-1.178.226 0 .49.067.792.197-.303.262-.667.836-1.095 1.726-.428.89-.8 1.837-1.114 2.844-.314 1.008-.472 1.824-.472 2.453 0 1.491.454 2.237 1.36 2.237.528 0 1.157-.288 1.887-.864.73-.576 1.447-1.334 2.151-2.276-.704-.602-1.251-1.386-1.642-2.353a8.026 8.026 0 01-.585-3.021c0-1.361.335-2.525 1-3.493.668-.967 1.567-1.452 2.7-1.452.957 0 1.63.268 2.02.805.39.535.586 1.275.586 2.216 0 .994-.233 2.112-.7 3.354a19.208 19.208 0 01-1.83 3.629c.452.262.93.393 1.435.393.73 0 1.485-.229 2.265-.687.78-.457 1.372-1.17 1.775-2.137l.452.392c-.478 1.151-1.158 2-2.04 2.55-.88.549-1.786.823-2.718.823-.68 0-1.284-.131-1.813-.393-.906 1.23-1.868 2.225-2.888 2.983-1.02.759-1.981 1.138-2.887 1.138l.001.002zm5.55-5.768a16.95 16.95 0 001.586-3.119c.401-1.06.604-2.034.604-2.924 0-.732-.107-1.281-.32-1.647-.214-.366-.484-.55-.812-.55-.352 0-.711.178-1.076.531-.364.353-.667.836-.906 1.451a5.513 5.513 0 00-.359 2.021c0 .811.107 1.589.321 2.334.214.745.536 1.38.963 1.903z" fill="#fff"/></svg><svg fill="none" viewBox="0 0 40 40" id="css--shop" xmlns="http://www.w3.org/2000/svg"><path d="M38.162 35.07h-.667V17.687A5.438 5.438 0 0040 13.111a.586.586 0 00-.077-.29l-4.65-8.137a1.843 1.843 0 00-1.596-.927H6.323a1.84 1.84 0 00-1.596.927L.077 12.82a.586.586 0 00-.077.29c0 1.92 1 3.609 2.505 4.577V35.07h-.667a.586.586 0 100 1.172h36.324a.586.586 0 100-1.172zM1.212 13.697h1.879a.586.586 0 000-1.172H1.596l4.148-7.26a.668.668 0 01.579-.336h27.354a.67.67 0 01.579.336l4.148 7.26H36.91a.586.586 0 100 1.172h1.879a4.274 4.274 0 01-4.227 3.681 4.273 4.273 0 01-4.227-3.681h4.07a.586.586 0 100-1.172H5.596a.586.586 0 100 1.172h4.07a4.273 4.273 0 01-4.227 3.681 4.274 4.274 0 01-4.227-3.681zm27.868 0a4.273 4.273 0 01-4.226 3.681 4.273 4.273 0 01-4.227-3.681h8.453zm-9.707 0a4.273 4.273 0 01-4.227 3.681 4.273 4.273 0 01-4.226-3.681h8.453zM33.192 35.07h-6.343v-1.96h6.343v1.96zm0-3.132h-6.343V21.212h6.343v10.727zm3.131 3.132h-1.96V20.626a.586.586 0 00-.585-.586h-7.515a.586.586 0 00-.586.586V35.07h-22V18.256a5.445 5.445 0 006.616-2.69 5.445 5.445 0 004.854 2.984A5.445 5.445 0 0020 15.565a5.445 5.445 0 004.854 2.985 5.445 5.445 0 004.853-2.985 5.445 5.445 0 004.853 2.985c.617 0 1.21-.104 1.763-.294V35.07z" fill="#688800"/><path d="M23.132 20.04H6.222a.586.586 0 00-.585.586v11.899c0 .324.262.586.586.586h16.909a.586.586 0 00.586-.586V20.626a.586.586 0 00-.586-.586zm-.586 11.899H6.809V21.212h15.737v10.727z" fill="#688800"/></svg><svg fill="none" viewBox="0 0 24 24" id="css--telegram" xmlns="http://www.w3.org/2000/svg"><path d="M20.485 3.515A11.921 11.921 0 0012 0a11.921 11.921 0 00-8.485 3.515A11.921 11.921 0 000 12c0 3.205 1.248 6.219 3.515 8.485A11.921 11.921 0 0012 24c3.205 0 6.219-1.248 8.485-3.515A11.922 11.922 0 0024 12c0-3.205-1.248-6.219-3.515-8.485zM12 23.242C5.801 23.242.758 18.2.758 12 .758 5.801 5.8.758 12 .758 18.199.758 23.242 5.8 23.242 12c0 6.199-5.043 11.242-11.242 11.242z" fill="#fff"/><path d="M18.797 4.624a.379.379 0 00-.403-.034L3.742 12.169a.38.38 0 00.004.675l3.833 1.917v3.797c0 .099.034.197.102.27a.38.38 0 00.461.072l4.385-2.436 3.356 1.438a.38.38 0 00.53-.27l.85-4.246a.379.379 0 10-.743-.148l-.758 3.788-3.107-1.332a.38.38 0 00-.334.017l-3.984 2.213v-3.398a.38.38 0 00-.21-.339L4.752 12.5l13.29-6.874-1.153 5.767a.379.379 0 00.743.148L18.94 5a.38.38 0 00-.143-.376z" fill="#fff"/><path d="M16.34 7.723a.379.379 0 00-.496-.088l-6.569 4.042a.38.38 0 00-.18.323v4.042a.379.379 0 00.718.17l1.488-2.977 5.01-5.01a.38.38 0 00.029-.502zm-5.618 5.02a.38.38 0 00-.071.098l-.798 1.596V12.21l3.639-2.24-2.77 2.771z" fill="#fff"/></svg><svg fill="none" viewBox="0 0 24 24" id="css--viber" xmlns="http://www.w3.org/2000/svg"><path d="M20.485 3.515A11.921 11.921 0 0012 0a11.921 11.921 0 00-8.485 3.515A11.921 11.921 0 000 12c0 3.205 1.248 6.219 3.515 8.485A11.921 11.921 0 0012 24c3.205 0 6.219-1.248 8.485-3.515A11.921 11.921 0 0024 12c0-3.205-1.248-6.219-3.515-8.485zM12 23.242C5.801 23.242.758 18.2.758 12 .758 5.801 5.8.758 12 .758 18.199.758 23.242 5.8 23.242 12c0 6.199-5.043 11.242-11.242 11.242z" fill="#fff"/><path d="M19.089 16.997l-.41-2.156a.421.421 0 00-.337-.332l-3.227-.627a.437.437 0 00-.386.114l-1.325 1.286c-2.233-.967-3.467-2.167-4.553-4.427l1.32-1.282a.407.407 0 00.117-.375l-.645-3.131a.422.422 0 00-.342-.327L7.08 5.342a.438.438 0 00-.173.003 3.184 3.184 0 00-1.534.823c-.731.71-1.01 1.746-.808 2.998.093.57.23 1.16.409 1.755a.43.43 0 00.53.283.413.413 0 00.291-.515 13.023 13.023 0 01-.384-1.652c-.161-.993.03-1.76.567-2.282a2.32 2.32 0 011.037-.58l1.847.33.544 2.638-1.37 1.329a.406.406 0 00-.087.462c1.244 2.705 2.704 4.12 5.386 5.223a.44.44 0 00.47-.088l1.368-1.329 2.718.528.34 1.792a2.22 2.22 0 01-.597 1.007c-.538.521-1.329.706-2.352.55-2.045-.312-4.881-1.276-6.71-3.043l-.026-.025c-.84-.82-1.59-1.95-2.167-3.268a.433.433 0 00-.561-.22.41.41 0 00-.227.544c.62 1.415 1.432 2.636 2.35 3.532l.027.025c1.974 1.908 5.004 2.943 7.181 3.275.274.042.537.063.789.063.938 0 1.724-.287 2.3-.846a3.04 3.04 0 00.848-1.49.4.4 0 00.004-.167zM13.14 8.042a.422.422 0 00-.427.416c0 .229.191.415.427.415 1.023 0 1.854.807 1.854 1.799 0 .226.195.415.428.415a.426.426 0 00.428-.415c0-1.45-1.216-2.63-2.71-2.63z" fill="#fff"/><path d="M13.14 6.271c-.167 0-.337.01-.503.027a.418.418 0 00-.378.458.425.425 0 00.472.368 3.85 3.85 0 01.41-.022c2.028 0 3.678 1.601 3.678 3.57 0 .133-.007.266-.022.397a.418.418 0 00.378.459.43.43 0 00.472-.367c.019-.162.028-.326.028-.489 0-2.426-2.034-4.4-4.535-4.4z" fill="#fff"/><path d="M13.14 4.5a6.63 6.63 0 00-.488.018.42.42 0 00-.394.445c.018.229.222.4.459.383.14-.01.283-.016.423-.016 3.035 0 5.505 2.397 5.505 5.342a5.2 5.2 0 01-.148 1.233.418.418 0 00.31.498.432.432 0 00.523-.307c.113-.464.17-.943.17-1.424 0-3.403-2.853-6.172-6.36-6.172z" fill="#fff"/></svg></svg>